<svg xmlns="http://www.w3.org/2000/svg" viewBox="0 0 256 256" role="img"><title>Comet Mage Card Back</title><defs><radialGradient id="sky"><stop stop-color="#3b245c"/><stop offset="1" stop-color="#11182c"/></radialGradient><linearGradient id="cloth" x2="1" y2="1"><stop stop-color="#bd9de8"/><stop offset="1" stop-color="#3b245c"/></linearGradient></defs><rect width="256" height="256" rx="30" fill="url(#sky)"/><g fill="#bd9de8" opacity=".7"><circle cx="42" cy="52" r="2"/><circle cx="210" cy="74" r="2"/><circle cx="192" cy="32" r="1.5"/><circle cx="28" cy="143" r="1.5"/></g><rect x="13" y="13" width="230" height="230" rx="22" fill="none" stroke="#bd9de8" stroke-width="2"/><rect x="25" y="25" width="206" height="206" rx="17" fill="none" stroke="#bd9de8" opacity=".3"/><g transform="translate(128 128) rotate(45)" fill="none" stroke="#bd9de8"><path d="M0-80 65 0 0 80-65 0z" stroke-width="3"/><circle r="49"/><circle r="37" opacity=".45"/><path d="M-80 0H80M0-80V80" opacity=".3"/><path d="m0-30 9 20 23 3-17 15 5 23-20-12-20 12 5-23-17-15 23-3z" fill="#bd9de8" stroke="none"/><g fill="#bd9de8"><circle cy="-68" r="4"/><circle cy="68" r="4"/><circle cx="-58" r="4"/><circle cx="58" r="4"/></g></g></svg>
